<mxfile host="Electron" modified="2023-12-17T20:37:27.666Z" agent="Mozilla/5.0 (Windows NT 10.0; Win64; x64) AppleWebKit/537.36 (KHTML, like Gecko) draw.io/22.0.3 Chrome/114.0.5735.289 Electron/25.8.4 Safari/537.36" etag="rYg-3YtdP3BPMeIn0aW6" version="22.0.3" type="device">
  <diagram name="PÃ¡gina-1" id="hwg9JKG7swuBbLUAF9cI">
    <mxGraphModel dx="2261" dy="2013" grid="1" gridSize="10" guides="1" tooltips="1" connect="1" arrows="1" fold="1" page="1" pageScale="1" pageWidth="827" pageHeight="1169" math="0" shadow="0">
      <root>
        <mxCell id="0" />
        <mxCell id="1" parent="0" />
        <mxCell id="DSU_GaLM-mCIvQF9DEVb-25" style="edgeStyle=orthogonalEdgeStyle;rounded=0;orthogonalLoop=1;jettySize=auto;html=1;strokeColor=#DDA15E;fontColor=#FEFAE0;fillColor=#BC6C25;endArrow=none;endFill=0;" edge="1" parent="1" source="DSU_GaLM-mCIvQF9DEVb-1" target="DSU_GaLM-mCIvQF9DEVb-7">
          <mxGeometry relative="1" as="geometry" />
        </mxCell>
        <mxCell id="DSU_GaLM-mCIvQF9DEVb-29" style="edgeStyle=none;shape=connector;rounded=0;orthogonalLoop=1;jettySize=auto;html=1;labelBackgroundColor=default;strokeColor=#DDA15E;align=center;verticalAlign=middle;fontFamily=Helvetica;fontSize=11;fontColor=#FEFAE0;endArrow=none;endFill=0;fillColor=#BC6C25;" edge="1" parent="1" source="DSU_GaLM-mCIvQF9DEVb-1" target="DSU_GaLM-mCIvQF9DEVb-10">
          <mxGeometry relative="1" as="geometry" />
        </mxCell>
        <mxCell id="DSU_GaLM-mCIvQF9DEVb-32" style="edgeStyle=none;shape=connector;rounded=0;orthogonalLoop=1;jettySize=auto;html=1;labelBackgroundColor=default;strokeColor=#DDA15E;align=center;verticalAlign=middle;fontFamily=Helvetica;fontSize=11;fontColor=#FEFAE0;endArrow=none;endFill=0;fillColor=#BC6C25;" edge="1" parent="1" source="DSU_GaLM-mCIvQF9DEVb-1" target="DSU_GaLM-mCIvQF9DEVb-13">
          <mxGeometry relative="1" as="geometry" />
        </mxCell>
        <mxCell id="DSU_GaLM-mCIvQF9DEVb-33" style="edgeStyle=none;shape=connector;rounded=0;orthogonalLoop=1;jettySize=auto;html=1;labelBackgroundColor=default;strokeColor=#DDA15E;align=center;verticalAlign=middle;fontFamily=Helvetica;fontSize=11;fontColor=#FEFAE0;endArrow=none;endFill=0;fillColor=#BC6C25;" edge="1" parent="1" source="DSU_GaLM-mCIvQF9DEVb-1" target="DSU_GaLM-mCIvQF9DEVb-6">
          <mxGeometry relative="1" as="geometry" />
        </mxCell>
        <mxCell id="DSU_GaLM-mCIvQF9DEVb-34" style="edgeStyle=none;shape=connector;rounded=0;orthogonalLoop=1;jettySize=auto;html=1;labelBackgroundColor=default;strokeColor=#DDA15E;align=center;verticalAlign=middle;fontFamily=Helvetica;fontSize=11;fontColor=#FEFAE0;endArrow=none;endFill=0;fillColor=#BC6C25;" edge="1" parent="1" source="DSU_GaLM-mCIvQF9DEVb-1" target="DSU_GaLM-mCIvQF9DEVb-15">
          <mxGeometry relative="1" as="geometry" />
        </mxCell>
        <mxCell id="DSU_GaLM-mCIvQF9DEVb-84" value="(1,1)" style="edgeLabel;html=1;align=center;verticalAlign=middle;resizable=0;points=[];fontSize=11;fontFamily=Helvetica;fontColor=#FEFAE0;" vertex="1" connectable="0" parent="DSU_GaLM-mCIvQF9DEVb-34">
          <mxGeometry x="0.0933" y="1" relative="1" as="geometry">
            <mxPoint as="offset" />
          </mxGeometry>
        </mxCell>
        <mxCell id="DSU_GaLM-mCIvQF9DEVb-1" value="CLIENTE" style="whiteSpace=wrap;html=1;align=center;strokeColor=#DDA15E;fontColor=#FEFAE0;fillColor=#BC6C25;" vertex="1" parent="1">
          <mxGeometry x="80" y="120" width="100" height="40" as="geometry" />
        </mxCell>
        <mxCell id="DSU_GaLM-mCIvQF9DEVb-51" style="edgeStyle=none;shape=connector;rounded=0;orthogonalLoop=1;jettySize=auto;html=1;labelBackgroundColor=default;strokeColor=#DDA15E;align=center;verticalAlign=middle;fontFamily=Helvetica;fontSize=11;fontColor=#FEFAE0;endArrow=none;endFill=0;fillColor=#BC6C25;" edge="1" parent="1" source="DSU_GaLM-mCIvQF9DEVb-2" target="DSU_GaLM-mCIvQF9DEVb-47">
          <mxGeometry relative="1" as="geometry" />
        </mxCell>
        <mxCell id="DSU_GaLM-mCIvQF9DEVb-56" style="edgeStyle=none;shape=connector;rounded=0;orthogonalLoop=1;jettySize=auto;html=1;labelBackgroundColor=default;strokeColor=#DDA15E;align=center;verticalAlign=middle;fontFamily=Helvetica;fontSize=11;fontColor=#FEFAE0;endArrow=none;endFill=0;fillColor=#BC6C25;" edge="1" parent="1" source="DSU_GaLM-mCIvQF9DEVb-2" target="DSU_GaLM-mCIvQF9DEVb-55">
          <mxGeometry relative="1" as="geometry" />
        </mxCell>
        <mxCell id="DSU_GaLM-mCIvQF9DEVb-57" style="edgeStyle=none;shape=connector;rounded=0;orthogonalLoop=1;jettySize=auto;html=1;labelBackgroundColor=default;strokeColor=#DDA15E;align=center;verticalAlign=middle;fontFamily=Helvetica;fontSize=11;fontColor=#FEFAE0;endArrow=none;endFill=0;fillColor=#BC6C25;" edge="1" parent="1" source="DSU_GaLM-mCIvQF9DEVb-2" target="DSU_GaLM-mCIvQF9DEVb-54">
          <mxGeometry relative="1" as="geometry" />
        </mxCell>
        <mxCell id="DSU_GaLM-mCIvQF9DEVb-58" style="edgeStyle=none;shape=connector;rounded=0;orthogonalLoop=1;jettySize=auto;html=1;labelBackgroundColor=default;strokeColor=#DDA15E;align=center;verticalAlign=middle;fontFamily=Helvetica;fontSize=11;fontColor=#FEFAE0;endArrow=none;endFill=0;fillColor=#BC6C25;" edge="1" parent="1" source="DSU_GaLM-mCIvQF9DEVb-2" target="DSU_GaLM-mCIvQF9DEVb-52">
          <mxGeometry relative="1" as="geometry" />
        </mxCell>
        <mxCell id="DSU_GaLM-mCIvQF9DEVb-59" style="edgeStyle=none;shape=connector;rounded=0;orthogonalLoop=1;jettySize=auto;html=1;labelBackgroundColor=default;strokeColor=#DDA15E;align=center;verticalAlign=middle;fontFamily=Helvetica;fontSize=11;fontColor=#FEFAE0;endArrow=none;endFill=0;fillColor=#BC6C25;" edge="1" parent="1" source="DSU_GaLM-mCIvQF9DEVb-2" target="DSU_GaLM-mCIvQF9DEVb-53">
          <mxGeometry relative="1" as="geometry" />
        </mxCell>
        <mxCell id="DSU_GaLM-mCIvQF9DEVb-60" style="edgeStyle=none;shape=connector;rounded=0;orthogonalLoop=1;jettySize=auto;html=1;labelBackgroundColor=default;strokeColor=#DDA15E;align=center;verticalAlign=middle;fontFamily=Helvetica;fontSize=11;fontColor=#FEFAE0;endArrow=none;endFill=0;fillColor=#BC6C25;" edge="1" parent="1" source="DSU_GaLM-mCIvQF9DEVb-2" target="DSU_GaLM-mCIvQF9DEVb-16">
          <mxGeometry relative="1" as="geometry" />
        </mxCell>
        <mxCell id="DSU_GaLM-mCIvQF9DEVb-83" value="(1,1)" style="edgeLabel;html=1;align=center;verticalAlign=middle;resizable=0;points=[];fontSize=11;fontFamily=Helvetica;fontColor=#FEFAE0;" vertex="1" connectable="0" parent="DSU_GaLM-mCIvQF9DEVb-60">
          <mxGeometry x="0.2133" y="4" relative="1" as="geometry">
            <mxPoint as="offset" />
          </mxGeometry>
        </mxCell>
        <mxCell id="DSU_GaLM-mCIvQF9DEVb-2" value="AGENCIA" style="whiteSpace=wrap;html=1;align=center;strokeColor=#DDA15E;fontColor=#FEFAE0;fillColor=#BC6C25;" vertex="1" parent="1">
          <mxGeometry x="80" y="520" width="100" height="40" as="geometry" />
        </mxCell>
        <mxCell id="DSU_GaLM-mCIvQF9DEVb-77" style="edgeStyle=none;shape=connector;rounded=0;orthogonalLoop=1;jettySize=auto;html=1;labelBackgroundColor=default;strokeColor=#DDA15E;align=center;verticalAlign=middle;fontFamily=Helvetica;fontSize=11;fontColor=#FEFAE0;endArrow=none;endFill=0;fillColor=#BC6C25;" edge="1" parent="1" source="DSU_GaLM-mCIvQF9DEVb-3" target="DSU_GaLM-mCIvQF9DEVb-73">
          <mxGeometry relative="1" as="geometry" />
        </mxCell>
        <mxCell id="DSU_GaLM-mCIvQF9DEVb-80" style="edgeStyle=none;shape=connector;rounded=0;orthogonalLoop=1;jettySize=auto;html=1;labelBackgroundColor=default;strokeColor=#DDA15E;align=center;verticalAlign=middle;fontFamily=Helvetica;fontSize=11;fontColor=#FEFAE0;endArrow=none;endFill=0;fillColor=#BC6C25;" edge="1" parent="1" source="DSU_GaLM-mCIvQF9DEVb-3" target="DSU_GaLM-mCIvQF9DEVb-78">
          <mxGeometry relative="1" as="geometry" />
        </mxCell>
        <mxCell id="DSU_GaLM-mCIvQF9DEVb-81" style="edgeStyle=none;shape=connector;rounded=0;orthogonalLoop=1;jettySize=auto;html=1;labelBackgroundColor=default;strokeColor=#DDA15E;align=center;verticalAlign=middle;fontFamily=Helvetica;fontSize=11;fontColor=#FEFAE0;endArrow=none;endFill=0;fillColor=#BC6C25;" edge="1" parent="1" source="DSU_GaLM-mCIvQF9DEVb-3" target="DSU_GaLM-mCIvQF9DEVb-79">
          <mxGeometry relative="1" as="geometry" />
        </mxCell>
        <mxCell id="DSU_GaLM-mCIvQF9DEVb-3" value="GARAGE" style="whiteSpace=wrap;html=1;align=center;strokeColor=#DDA15E;fontColor=#FEFAE0;fillColor=#BC6C25;" vertex="1" parent="1">
          <mxGeometry x="600" y="800" width="100" height="40" as="geometry" />
        </mxCell>
        <mxCell id="DSU_GaLM-mCIvQF9DEVb-65" style="edgeStyle=none;shape=connector;rounded=0;orthogonalLoop=1;jettySize=auto;html=1;labelBackgroundColor=default;strokeColor=#DDA15E;align=center;verticalAlign=middle;fontFamily=Helvetica;fontSize=11;fontColor=#FEFAE0;endArrow=none;endFill=0;fillColor=#BC6C25;" edge="1" parent="1" source="DSU_GaLM-mCIvQF9DEVb-4" target="DSU_GaLM-mCIvQF9DEVb-62">
          <mxGeometry relative="1" as="geometry" />
        </mxCell>
        <mxCell id="DSU_GaLM-mCIvQF9DEVb-66" style="edgeStyle=none;shape=connector;rounded=0;orthogonalLoop=1;jettySize=auto;html=1;labelBackgroundColor=default;strokeColor=#DDA15E;align=center;verticalAlign=middle;fontFamily=Helvetica;fontSize=11;fontColor=#FEFAE0;endArrow=none;endFill=0;fillColor=#BC6C25;" edge="1" parent="1" source="DSU_GaLM-mCIvQF9DEVb-4" target="DSU_GaLM-mCIvQF9DEVb-63">
          <mxGeometry relative="1" as="geometry" />
        </mxCell>
        <mxCell id="DSU_GaLM-mCIvQF9DEVb-67" style="edgeStyle=none;shape=connector;rounded=0;orthogonalLoop=1;jettySize=auto;html=1;labelBackgroundColor=default;strokeColor=#DDA15E;align=center;verticalAlign=middle;fontFamily=Helvetica;fontSize=11;fontColor=#FEFAE0;endArrow=none;endFill=0;fillColor=#BC6C25;" edge="1" parent="1" source="DSU_GaLM-mCIvQF9DEVb-4" target="DSU_GaLM-mCIvQF9DEVb-64">
          <mxGeometry relative="1" as="geometry" />
        </mxCell>
        <mxCell id="DSU_GaLM-mCIvQF9DEVb-68" style="edgeStyle=none;shape=connector;rounded=0;orthogonalLoop=1;jettySize=auto;html=1;labelBackgroundColor=default;strokeColor=#DDA15E;align=center;verticalAlign=middle;fontFamily=Helvetica;fontSize=11;fontColor=#FEFAE0;endArrow=none;endFill=0;fillColor=#BC6C25;" edge="1" parent="1" source="DSU_GaLM-mCIvQF9DEVb-4" target="DSU_GaLM-mCIvQF9DEVb-18">
          <mxGeometry relative="1" as="geometry" />
        </mxCell>
        <mxCell id="DSU_GaLM-mCIvQF9DEVb-89" value="(1,N)" style="edgeLabel;html=1;align=center;verticalAlign=middle;resizable=0;points=[];fontSize=11;fontFamily=Helvetica;fontColor=#FEFAE0;" vertex="1" connectable="0" parent="DSU_GaLM-mCIvQF9DEVb-68">
          <mxGeometry x="-0.1556" y="4" relative="1" as="geometry">
            <mxPoint as="offset" />
          </mxGeometry>
        </mxCell>
        <mxCell id="DSU_GaLM-mCIvQF9DEVb-4" value="COCHE" style="shape=ext;margin=3;double=1;whiteSpace=wrap;html=1;align=center;strokeColor=#DDA15E;fontColor=#FEFAE0;fillColor=#BC6C25;" vertex="1" parent="1">
          <mxGeometry x="600" y="520" width="100" height="40" as="geometry" />
        </mxCell>
        <mxCell id="DSU_GaLM-mCIvQF9DEVb-36" style="edgeStyle=none;shape=connector;rounded=0;orthogonalLoop=1;jettySize=auto;html=1;labelBackgroundColor=default;strokeColor=#DDA15E;align=center;verticalAlign=middle;fontFamily=Helvetica;fontSize=11;fontColor=#FEFAE0;endArrow=none;endFill=0;fillColor=#BC6C25;" edge="1" parent="1" source="DSU_GaLM-mCIvQF9DEVb-5" target="DSU_GaLM-mCIvQF9DEVb-24">
          <mxGeometry relative="1" as="geometry" />
        </mxCell>
        <mxCell id="DSU_GaLM-mCIvQF9DEVb-37" style="edgeStyle=none;shape=connector;rounded=0;orthogonalLoop=1;jettySize=auto;html=1;labelBackgroundColor=default;strokeColor=#DDA15E;align=center;verticalAlign=middle;fontFamily=Helvetica;fontSize=11;fontColor=#FEFAE0;endArrow=none;endFill=0;fillColor=#BC6C25;" edge="1" parent="1" source="DSU_GaLM-mCIvQF9DEVb-5" target="DSU_GaLM-mCIvQF9DEVb-19">
          <mxGeometry relative="1" as="geometry" />
        </mxCell>
        <mxCell id="DSU_GaLM-mCIvQF9DEVb-38" style="edgeStyle=none;shape=connector;rounded=0;orthogonalLoop=1;jettySize=auto;html=1;labelBackgroundColor=default;strokeColor=#DDA15E;align=center;verticalAlign=middle;fontFamily=Helvetica;fontSize=11;fontColor=#FEFAE0;endArrow=none;endFill=0;fillColor=#BC6C25;" edge="1" parent="1" source="DSU_GaLM-mCIvQF9DEVb-5" target="DSU_GaLM-mCIvQF9DEVb-20">
          <mxGeometry relative="1" as="geometry" />
        </mxCell>
        <mxCell id="DSU_GaLM-mCIvQF9DEVb-39" style="edgeStyle=none;shape=connector;rounded=0;orthogonalLoop=1;jettySize=auto;html=1;labelBackgroundColor=default;strokeColor=#DDA15E;align=center;verticalAlign=middle;fontFamily=Helvetica;fontSize=11;fontColor=#FEFAE0;endArrow=none;endFill=0;fillColor=#BC6C25;" edge="1" parent="1" source="DSU_GaLM-mCIvQF9DEVb-5" target="DSU_GaLM-mCIvQF9DEVb-21">
          <mxGeometry relative="1" as="geometry" />
        </mxCell>
        <mxCell id="DSU_GaLM-mCIvQF9DEVb-40" style="edgeStyle=none;shape=connector;rounded=0;orthogonalLoop=1;jettySize=auto;html=1;labelBackgroundColor=default;strokeColor=#DDA15E;align=center;verticalAlign=middle;fontFamily=Helvetica;fontSize=11;fontColor=#FEFAE0;endArrow=none;endFill=0;fillColor=#BC6C25;" edge="1" parent="1" source="DSU_GaLM-mCIvQF9DEVb-5" target="DSU_GaLM-mCIvQF9DEVb-22">
          <mxGeometry relative="1" as="geometry" />
        </mxCell>
        <mxCell id="DSU_GaLM-mCIvQF9DEVb-41" style="edgeStyle=none;shape=connector;rounded=0;orthogonalLoop=1;jettySize=auto;html=1;labelBackgroundColor=default;strokeColor=#DDA15E;align=center;verticalAlign=middle;fontFamily=Helvetica;fontSize=11;fontColor=#FEFAE0;endArrow=none;endFill=0;fillColor=#BC6C25;" edge="1" parent="1" source="DSU_GaLM-mCIvQF9DEVb-5" target="DSU_GaLM-mCIvQF9DEVb-23">
          <mxGeometry relative="1" as="geometry" />
        </mxCell>
        <mxCell id="DSU_GaLM-mCIvQF9DEVb-42" style="edgeStyle=none;shape=connector;rounded=0;orthogonalLoop=1;jettySize=auto;html=1;labelBackgroundColor=default;strokeColor=#DDA15E;align=center;verticalAlign=middle;fontFamily=Helvetica;fontSize=11;fontColor=#FEFAE0;endArrow=none;endFill=0;fillColor=#BC6C25;" edge="1" parent="1" source="DSU_GaLM-mCIvQF9DEVb-5" target="DSU_GaLM-mCIvQF9DEVb-17">
          <mxGeometry relative="1" as="geometry" />
        </mxCell>
        <mxCell id="DSU_GaLM-mCIvQF9DEVb-87" value="(1,1)" style="edgeLabel;html=1;align=center;verticalAlign=middle;resizable=0;points=[];fontSize=11;fontFamily=Helvetica;fontColor=#FEFAE0;" vertex="1" connectable="0" parent="DSU_GaLM-mCIvQF9DEVb-42">
          <mxGeometry x="-0.3733" y="5" relative="1" as="geometry">
            <mxPoint as="offset" />
          </mxGeometry>
        </mxCell>
        <mxCell id="DSU_GaLM-mCIvQF9DEVb-5" value="RESERVA" style="shape=ext;margin=3;double=1;whiteSpace=wrap;html=1;align=center;strokeColor=#DDA15E;fontColor=#FEFAE0;fillColor=#BC6C25;" vertex="1" parent="1">
          <mxGeometry x="600" y="120" width="100" height="40" as="geometry" />
        </mxCell>
        <mxCell id="DSU_GaLM-mCIvQF9DEVb-6" value="Nombre" style="ellipse;whiteSpace=wrap;html=1;align=center;strokeColor=#DDA15E;fontColor=#FEFAE0;fillColor=#BC6C25;" vertex="1" parent="1">
          <mxGeometry x="30" y="240" width="100" height="40" as="geometry" />
        </mxCell>
        <mxCell id="DSU_GaLM-mCIvQF9DEVb-26" style="rounded=0;orthogonalLoop=1;jettySize=auto;html=1;strokeColor=#DDA15E;fontColor=#FEFAE0;fillColor=#BC6C25;endArrow=none;endFill=0;" edge="1" parent="1" source="DSU_GaLM-mCIvQF9DEVb-7" target="DSU_GaLM-mCIvQF9DEVb-8">
          <mxGeometry relative="1" as="geometry" />
        </mxCell>
        <mxCell id="DSU_GaLM-mCIvQF9DEVb-27" style="rounded=0;orthogonalLoop=1;jettySize=auto;html=1;strokeColor=#DDA15E;fontColor=#FEFAE0;fillColor=#BC6C25;endArrow=none;endFill=0;" edge="1" parent="1" source="DSU_GaLM-mCIvQF9DEVb-7" target="DSU_GaLM-mCIvQF9DEVb-9">
          <mxGeometry relative="1" as="geometry" />
        </mxCell>
        <mxCell id="DSU_GaLM-mCIvQF9DEVb-28" style="edgeStyle=none;shape=connector;rounded=0;orthogonalLoop=1;jettySize=auto;html=1;labelBackgroundColor=default;strokeColor=#DDA15E;align=center;verticalAlign=middle;fontFamily=Helvetica;fontSize=11;fontColor=#FEFAE0;endArrow=none;endFill=0;fillColor=#BC6C25;" edge="1" parent="1" source="DSU_GaLM-mCIvQF9DEVb-7" target="DSU_GaLM-mCIvQF9DEVb-14">
          <mxGeometry relative="1" as="geometry" />
        </mxCell>
        <mxCell id="DSU_GaLM-mCIvQF9DEVb-7" value="Direccion" style="ellipse;whiteSpace=wrap;html=1;align=center;strokeColor=#DDA15E;fontColor=#FEFAE0;fillColor=#BC6C25;" vertex="1" parent="1">
          <mxGeometry x="80" y="20" width="100" height="40" as="geometry" />
        </mxCell>
        <mxCell id="DSU_GaLM-mCIvQF9DEVb-8" value="Calle" style="ellipse;whiteSpace=wrap;html=1;align=center;strokeColor=#DDA15E;fontColor=#FEFAE0;fillColor=#BC6C25;" vertex="1" parent="1">
          <mxGeometry x="30" y="-70" width="100" height="40" as="geometry" />
        </mxCell>
        <mxCell id="DSU_GaLM-mCIvQF9DEVb-9" value="Numero" style="ellipse;whiteSpace=wrap;html=1;align=center;strokeColor=#DDA15E;fontColor=#FEFAE0;fillColor=#BC6C25;" vertex="1" parent="1">
          <mxGeometry x="170" y="-70" width="100" height="40" as="geometry" />
        </mxCell>
        <mxCell id="DSU_GaLM-mCIvQF9DEVb-30" style="edgeStyle=none;shape=connector;rounded=0;orthogonalLoop=1;jettySize=auto;html=1;labelBackgroundColor=default;strokeColor=#DDA15E;align=center;verticalAlign=middle;fontFamily=Helvetica;fontSize=11;fontColor=#FEFAE0;endArrow=none;endFill=0;fillColor=#BC6C25;" edge="1" parent="1" source="DSU_GaLM-mCIvQF9DEVb-10" target="DSU_GaLM-mCIvQF9DEVb-12">
          <mxGeometry relative="1" as="geometry" />
        </mxCell>
        <mxCell id="DSU_GaLM-mCIvQF9DEVb-31" style="edgeStyle=none;shape=connector;rounded=0;orthogonalLoop=1;jettySize=auto;html=1;labelBackgroundColor=default;strokeColor=#DDA15E;align=center;verticalAlign=middle;fontFamily=Helvetica;fontSize=11;fontColor=#FEFAE0;endArrow=none;endFill=0;fillColor=#BC6C25;" edge="1" parent="1" source="DSU_GaLM-mCIvQF9DEVb-10" target="DSU_GaLM-mCIvQF9DEVb-11">
          <mxGeometry relative="1" as="geometry" />
        </mxCell>
        <mxCell id="DSU_GaLM-mCIvQF9DEVb-85" value="(0,1)" style="edgeLabel;html=1;align=center;verticalAlign=middle;resizable=0;points=[];fontSize=11;fontFamily=Helvetica;fontColor=#FEFAE0;" vertex="1" connectable="0" parent="DSU_GaLM-mCIvQF9DEVb-31">
          <mxGeometry x="0.2938" y="-1" relative="1" as="geometry">
            <mxPoint y="1" as="offset" />
          </mxGeometry>
        </mxCell>
        <mxCell id="DSU_GaLM-mCIvQF9DEVb-10" value="Apellidos" style="ellipse;whiteSpace=wrap;html=1;align=center;strokeColor=#DDA15E;fontColor=#FEFAE0;fillColor=#BC6C25;" vertex="1" parent="1">
          <mxGeometry x="-40" y="100" width="100" height="40" as="geometry" />
        </mxCell>
        <mxCell id="DSU_GaLM-mCIvQF9DEVb-11" value="Apellido2" style="ellipse;whiteSpace=wrap;html=1;align=center;strokeColor=#DDA15E;fontColor=#FEFAE0;fillColor=#BC6C25;" vertex="1" parent="1">
          <mxGeometry x="-160" y="30" width="100" height="40" as="geometry" />
        </mxCell>
        <mxCell id="DSU_GaLM-mCIvQF9DEVb-12" value="Apellido1" style="ellipse;whiteSpace=wrap;html=1;align=center;strokeColor=#DDA15E;fontColor=#FEFAE0;fillColor=#BC6C25;" vertex="1" parent="1">
          <mxGeometry x="-190" y="110" width="100" height="40" as="geometry" />
        </mxCell>
        <mxCell id="DSU_GaLM-mCIvQF9DEVb-13" value="DNI" style="ellipse;whiteSpace=wrap;html=1;align=center;fontStyle=4;strokeColor=#DDA15E;fontColor=#FEFAE0;fillColor=#BC6C25;" vertex="1" parent="1">
          <mxGeometry x="-40" y="190" width="100" height="40" as="geometry" />
        </mxCell>
        <mxCell id="DSU_GaLM-mCIvQF9DEVb-14" value="Localidad" style="ellipse;whiteSpace=wrap;html=1;align=center;strokeColor=#DDA15E;fontColor=#FEFAE0;fillColor=#BC6C25;" vertex="1" parent="1">
          <mxGeometry x="220" y="-10" width="100" height="40" as="geometry" />
        </mxCell>
        <mxCell id="DSU_GaLM-mCIvQF9DEVb-35" style="edgeStyle=none;shape=connector;rounded=0;orthogonalLoop=1;jettySize=auto;html=1;labelBackgroundColor=default;strokeColor=#DDA15E;align=center;verticalAlign=middle;fontFamily=Helvetica;fontSize=11;fontColor=#FEFAE0;endArrow=none;endFill=0;fillColor=#BC6C25;" edge="1" parent="1" source="DSU_GaLM-mCIvQF9DEVb-15" target="DSU_GaLM-mCIvQF9DEVb-5">
          <mxGeometry relative="1" as="geometry" />
        </mxCell>
        <mxCell id="DSU_GaLM-mCIvQF9DEVb-86" value="(0,N)" style="edgeLabel;html=1;align=center;verticalAlign=middle;resizable=0;points=[];fontSize=11;fontFamily=Helvetica;fontColor=#FEFAE0;" vertex="1" connectable="0" parent="DSU_GaLM-mCIvQF9DEVb-35">
          <mxGeometry x="-0.2933" y="-3" relative="1" as="geometry">
            <mxPoint as="offset" />
          </mxGeometry>
        </mxCell>
        <mxCell id="DSU_GaLM-mCIvQF9DEVb-15" value="Tiene" style="shape=rhombus;perimeter=rhombusPerimeter;whiteSpace=wrap;html=1;align=center;strokeColor=#DDA15E;fontColor=#FEFAE0;fillColor=#BC6C25;" vertex="1" parent="1">
          <mxGeometry x="330" y="110" width="120" height="60" as="geometry" />
        </mxCell>
        <mxCell id="DSU_GaLM-mCIvQF9DEVb-61" style="edgeStyle=none;shape=connector;rounded=0;orthogonalLoop=1;jettySize=auto;html=1;exitX=1;exitY=0.5;exitDx=0;exitDy=0;labelBackgroundColor=default;strokeColor=#DDA15E;align=center;verticalAlign=middle;fontFamily=Helvetica;fontSize=11;fontColor=#FEFAE0;endArrow=none;endFill=0;fillColor=#BC6C25;" edge="1" parent="1" source="DSU_GaLM-mCIvQF9DEVb-16" target="DSU_GaLM-mCIvQF9DEVb-4">
          <mxGeometry relative="1" as="geometry" />
        </mxCell>
        <mxCell id="DSU_GaLM-mCIvQF9DEVb-90" value="(1,N)" style="edgeLabel;html=1;align=center;verticalAlign=middle;resizable=0;points=[];fontSize=11;fontFamily=Helvetica;fontColor=#FEFAE0;" vertex="1" connectable="0" parent="DSU_GaLM-mCIvQF9DEVb-61">
          <mxGeometry x="-0.1067" y="4" relative="1" as="geometry">
            <mxPoint as="offset" />
          </mxGeometry>
        </mxCell>
        <mxCell id="DSU_GaLM-mCIvQF9DEVb-16" value="Posee" style="shape=rhombus;perimeter=rhombusPerimeter;whiteSpace=wrap;html=1;align=center;strokeColor=#DDA15E;fontColor=#FEFAE0;fillColor=#BC6C25;" vertex="1" parent="1">
          <mxGeometry x="330" y="510" width="120" height="60" as="geometry" />
        </mxCell>
        <mxCell id="DSU_GaLM-mCIvQF9DEVb-43" style="edgeStyle=none;shape=connector;rounded=0;orthogonalLoop=1;jettySize=auto;html=1;labelBackgroundColor=default;strokeColor=#DDA15E;align=center;verticalAlign=middle;fontFamily=Helvetica;fontSize=11;fontColor=#FEFAE0;endArrow=none;endFill=0;fillColor=#BC6C25;" edge="1" parent="1" source="DSU_GaLM-mCIvQF9DEVb-17" target="DSU_GaLM-mCIvQF9DEVb-4">
          <mxGeometry relative="1" as="geometry" />
        </mxCell>
        <mxCell id="DSU_GaLM-mCIvQF9DEVb-88" value="(1,N)" style="edgeLabel;html=1;align=center;verticalAlign=middle;resizable=0;points=[];fontSize=11;fontFamily=Helvetica;fontColor=#FEFAE0;" vertex="1" connectable="0" parent="DSU_GaLM-mCIvQF9DEVb-43">
          <mxGeometry x="-0.2267" y="1" relative="1" as="geometry">
            <mxPoint as="offset" />
          </mxGeometry>
        </mxCell>
        <mxCell id="DSU_GaLM-mCIvQF9DEVb-17" value="Involucra" style="shape=rhombus;perimeter=rhombusPerimeter;whiteSpace=wrap;html=1;align=center;strokeColor=#DDA15E;fontColor=#FEFAE0;fillColor=#BC6C25;" vertex="1" parent="1">
          <mxGeometry x="590" y="310" width="120" height="60" as="geometry" />
        </mxCell>
        <mxCell id="DSU_GaLM-mCIvQF9DEVb-69" style="edgeStyle=none;shape=connector;rounded=0;orthogonalLoop=1;jettySize=auto;html=1;labelBackgroundColor=default;strokeColor=#DDA15E;align=center;verticalAlign=middle;fontFamily=Helvetica;fontSize=11;fontColor=#FEFAE0;endArrow=none;endFill=0;fillColor=#BC6C25;" edge="1" parent="1" source="DSU_GaLM-mCIvQF9DEVb-18" target="DSU_GaLM-mCIvQF9DEVb-3">
          <mxGeometry relative="1" as="geometry" />
        </mxCell>
        <mxCell id="DSU_GaLM-mCIvQF9DEVb-82" value="(1,1)" style="edgeLabel;html=1;align=center;verticalAlign=middle;resizable=0;points=[];fontSize=11;fontFamily=Helvetica;fontColor=#FEFAE0;" vertex="1" connectable="0" parent="DSU_GaLM-mCIvQF9DEVb-69">
          <mxGeometry x="-0.1111" y="1" relative="1" as="geometry">
            <mxPoint as="offset" />
          </mxGeometry>
        </mxCell>
        <mxCell id="DSU_GaLM-mCIvQF9DEVb-18" value="Aparca en" style="shape=rhombus;perimeter=rhombusPerimeter;whiteSpace=wrap;html=1;align=center;strokeColor=#DDA15E;fontColor=#FEFAE0;fillColor=#BC6C25;" vertex="1" parent="1">
          <mxGeometry x="590" y="650" width="120" height="60" as="geometry" />
        </mxCell>
        <mxCell id="DSU_GaLM-mCIvQF9DEVb-19" value="ID_Reserva" style="ellipse;whiteSpace=wrap;html=1;align=center;fontStyle=4;strokeColor=#DDA15E;fontColor=#FEFAE0;fillColor=#BC6C25;" vertex="1" parent="1">
          <mxGeometry x="590" y="-30" width="100" height="40" as="geometry" />
        </mxCell>
        <mxCell id="DSU_GaLM-mCIvQF9DEVb-20" value="Seguro" style="ellipse;whiteSpace=wrap;html=1;align=center;strokeColor=#DDA15E;fontColor=#FEFAE0;fillColor=#BC6C25;" vertex="1" parent="1">
          <mxGeometry x="720" y="20" width="100" height="40" as="geometry" />
        </mxCell>
        <mxCell id="DSU_GaLM-mCIvQF9DEVb-21" value="Fianza" style="ellipse;whiteSpace=wrap;html=1;align=center;strokeColor=#DDA15E;fontColor=#FEFAE0;fillColor=#BC6C25;" vertex="1" parent="1">
          <mxGeometry x="760" y="80" width="100" height="40" as="geometry" />
        </mxCell>
        <mxCell id="DSU_GaLM-mCIvQF9DEVb-22" value="Fecha_Ini" style="ellipse;whiteSpace=wrap;html=1;align=center;strokeColor=#DDA15E;fontColor=#FEFAE0;fillColor=#BC6C25;" vertex="1" parent="1">
          <mxGeometry x="780" y="150" width="100" height="40" as="geometry" />
        </mxCell>
        <mxCell id="DSU_GaLM-mCIvQF9DEVb-23" value="Fecha_Fin" style="ellipse;whiteSpace=wrap;html=1;align=center;strokeColor=#DDA15E;fontColor=#FEFAE0;fillColor=#BC6C25;" vertex="1" parent="1">
          <mxGeometry x="770" y="210" width="100" height="40" as="geometry" />
        </mxCell>
        <mxCell id="DSU_GaLM-mCIvQF9DEVb-24" value="Fecha" style="ellipse;whiteSpace=wrap;html=1;align=center;strokeColor=#DDA15E;fontColor=#FEFAE0;fillColor=#BC6C25;" vertex="1" parent="1">
          <mxGeometry x="490" y="20" width="100" height="40" as="geometry" />
        </mxCell>
        <mxCell id="DSU_GaLM-mCIvQF9DEVb-44" style="rounded=0;orthogonalLoop=1;jettySize=auto;html=1;strokeColor=#DDA15E;fontColor=#FEFAE0;fillColor=#BC6C25;endArrow=none;endFill=0;" edge="1" parent="1" source="DSU_GaLM-mCIvQF9DEVb-47" target="DSU_GaLM-mCIvQF9DEVb-48">
          <mxGeometry relative="1" as="geometry" />
        </mxCell>
        <mxCell id="DSU_GaLM-mCIvQF9DEVb-45" style="rounded=0;orthogonalLoop=1;jettySize=auto;html=1;strokeColor=#DDA15E;fontColor=#FEFAE0;fillColor=#BC6C25;endArrow=none;endFill=0;" edge="1" parent="1" source="DSU_GaLM-mCIvQF9DEVb-47" target="DSU_GaLM-mCIvQF9DEVb-49">
          <mxGeometry relative="1" as="geometry" />
        </mxCell>
        <mxCell id="DSU_GaLM-mCIvQF9DEVb-46" style="edgeStyle=none;shape=connector;rounded=0;orthogonalLoop=1;jettySize=auto;html=1;labelBackgroundColor=default;strokeColor=#DDA15E;align=center;verticalAlign=middle;fontFamily=Helvetica;fontSize=11;fontColor=#FEFAE0;endArrow=none;endFill=0;fillColor=#BC6C25;" edge="1" parent="1" source="DSU_GaLM-mCIvQF9DEVb-47" target="DSU_GaLM-mCIvQF9DEVb-50">
          <mxGeometry relative="1" as="geometry" />
        </mxCell>
        <mxCell id="DSU_GaLM-mCIvQF9DEVb-47" value="Direccion" style="ellipse;whiteSpace=wrap;html=1;align=center;strokeColor=#DDA15E;fontColor=#FEFAE0;fillColor=#BC6C25;" vertex="1" parent="1">
          <mxGeometry x="80" y="420" width="100" height="40" as="geometry" />
        </mxCell>
        <mxCell id="DSU_GaLM-mCIvQF9DEVb-48" value="Calle" style="ellipse;whiteSpace=wrap;html=1;align=center;strokeColor=#DDA15E;fontColor=#FEFAE0;fillColor=#BC6C25;" vertex="1" parent="1">
          <mxGeometry x="30" y="330" width="100" height="40" as="geometry" />
        </mxCell>
        <mxCell id="DSU_GaLM-mCIvQF9DEVb-49" value="Numero" style="ellipse;whiteSpace=wrap;html=1;align=center;strokeColor=#DDA15E;fontColor=#FEFAE0;fillColor=#BC6C25;" vertex="1" parent="1">
          <mxGeometry x="170" y="330" width="100" height="40" as="geometry" />
        </mxCell>
        <mxCell id="DSU_GaLM-mCIvQF9DEVb-50" value="Localidad" style="ellipse;whiteSpace=wrap;html=1;align=center;strokeColor=#DDA15E;fontColor=#FEFAE0;fillColor=#BC6C25;" vertex="1" parent="1">
          <mxGeometry x="220" y="390" width="100" height="40" as="geometry" />
        </mxCell>
        <mxCell id="DSU_GaLM-mCIvQF9DEVb-52" value="Telefono" style="ellipse;shape=doubleEllipse;margin=3;whiteSpace=wrap;html=1;align=center;strokeColor=#DDA15E;fontFamily=Helvetica;fontSize=11;fontColor=#FEFAE0;fillColor=#BC6C25;" vertex="1" parent="1">
          <mxGeometry x="-60" y="460" width="100" height="40" as="geometry" />
        </mxCell>
        <mxCell id="DSU_GaLM-mCIvQF9DEVb-53" value="Ventas" style="ellipse;whiteSpace=wrap;html=1;align=center;dashed=1;strokeColor=#DDA15E;fontFamily=Helvetica;fontSize=11;fontColor=#FEFAE0;fillColor=#BC6C25;" vertex="1" parent="1">
          <mxGeometry x="-80" y="520" width="100" height="40" as="geometry" />
        </mxCell>
        <mxCell id="DSU_GaLM-mCIvQF9DEVb-54" value="&lt;span style=&quot;border-bottom: 1px dotted&quot;&gt;CIF&lt;/span&gt;" style="ellipse;whiteSpace=wrap;html=1;align=center;strokeColor=#DDA15E;fontFamily=Helvetica;fontSize=11;fontColor=#FEFAE0;fillColor=#BC6C25;" vertex="1" parent="1">
          <mxGeometry x="-50" y="600" width="100" height="40" as="geometry" />
        </mxCell>
        <mxCell id="DSU_GaLM-mCIvQF9DEVb-55" value="ID" style="ellipse;whiteSpace=wrap;html=1;align=center;fontStyle=4;strokeColor=#DDA15E;fontFamily=Helvetica;fontSize=11;fontColor=#FEFAE0;fillColor=#BC6C25;" vertex="1" parent="1">
          <mxGeometry x="80" y="620" width="100" height="40" as="geometry" />
        </mxCell>
        <mxCell id="DSU_GaLM-mCIvQF9DEVb-62" value="Matricula" style="ellipse;whiteSpace=wrap;html=1;align=center;fontStyle=4;strokeColor=#DDA15E;fontFamily=Helvetica;fontSize=11;fontColor=#FEFAE0;fillColor=#BC6C25;" vertex="1" parent="1">
          <mxGeometry x="727" y="450" width="100" height="40" as="geometry" />
        </mxCell>
        <mxCell id="DSU_GaLM-mCIvQF9DEVb-63" value="Marca" style="ellipse;whiteSpace=wrap;html=1;align=center;strokeColor=#DDA15E;fontFamily=Helvetica;fontSize=11;fontColor=#FEFAE0;fillColor=#BC6C25;" vertex="1" parent="1">
          <mxGeometry x="760" y="520" width="100" height="40" as="geometry" />
        </mxCell>
        <mxCell id="DSU_GaLM-mCIvQF9DEVb-64" value="Modelo" style="ellipse;whiteSpace=wrap;html=1;align=center;strokeColor=#DDA15E;fontFamily=Helvetica;fontSize=11;fontColor=#FEFAE0;fillColor=#BC6C25;" vertex="1" parent="1">
          <mxGeometry x="727" y="590" width="100" height="40" as="geometry" />
        </mxCell>
        <mxCell id="DSU_GaLM-mCIvQF9DEVb-70" style="rounded=0;orthogonalLoop=1;jettySize=auto;html=1;strokeColor=#DDA15E;fontColor=#FEFAE0;fillColor=#BC6C25;endArrow=none;endFill=0;" edge="1" parent="1" source="DSU_GaLM-mCIvQF9DEVb-73" target="DSU_GaLM-mCIvQF9DEVb-74">
          <mxGeometry relative="1" as="geometry" />
        </mxCell>
        <mxCell id="DSU_GaLM-mCIvQF9DEVb-71" style="rounded=0;orthogonalLoop=1;jettySize=auto;html=1;strokeColor=#DDA15E;fontColor=#FEFAE0;fillColor=#BC6C25;endArrow=none;endFill=0;" edge="1" parent="1" source="DSU_GaLM-mCIvQF9DEVb-73" target="DSU_GaLM-mCIvQF9DEVb-75">
          <mxGeometry relative="1" as="geometry" />
        </mxCell>
        <mxCell id="DSU_GaLM-mCIvQF9DEVb-72" style="edgeStyle=none;shape=connector;rounded=0;orthogonalLoop=1;jettySize=auto;html=1;labelBackgroundColor=default;strokeColor=#DDA15E;align=center;verticalAlign=middle;fontFamily=Helvetica;fontSize=11;fontColor=#FEFAE0;endArrow=none;endFill=0;fillColor=#BC6C25;" edge="1" parent="1" source="DSU_GaLM-mCIvQF9DEVb-73" target="DSU_GaLM-mCIvQF9DEVb-76">
          <mxGeometry relative="1" as="geometry" />
        </mxCell>
        <mxCell id="DSU_GaLM-mCIvQF9DEVb-73" value="Direccion" style="ellipse;whiteSpace=wrap;html=1;align=center;strokeColor=#DDA15E;fontColor=#FEFAE0;fillColor=#BC6C25;" vertex="1" parent="1">
          <mxGeometry x="790" y="800" width="100" height="40" as="geometry" />
        </mxCell>
        <mxCell id="DSU_GaLM-mCIvQF9DEVb-74" value="Calle" style="ellipse;whiteSpace=wrap;html=1;align=center;strokeColor=#DDA15E;fontColor=#FEFAE0;fillColor=#BC6C25;" vertex="1" parent="1">
          <mxGeometry x="740" y="710" width="100" height="40" as="geometry" />
        </mxCell>
        <mxCell id="DSU_GaLM-mCIvQF9DEVb-75" value="Numero" style="ellipse;whiteSpace=wrap;html=1;align=center;strokeColor=#DDA15E;fontColor=#FEFAE0;fillColor=#BC6C25;" vertex="1" parent="1">
          <mxGeometry x="880" y="710" width="100" height="40" as="geometry" />
        </mxCell>
        <mxCell id="DSU_GaLM-mCIvQF9DEVb-76" value="Localidad" style="ellipse;whiteSpace=wrap;html=1;align=center;strokeColor=#DDA15E;fontColor=#FEFAE0;fillColor=#BC6C25;" vertex="1" parent="1">
          <mxGeometry x="930" y="770" width="100" height="40" as="geometry" />
        </mxCell>
        <mxCell id="DSU_GaLM-mCIvQF9DEVb-78" value="ID" style="ellipse;whiteSpace=wrap;html=1;align=center;fontStyle=4;strokeColor=#DDA15E;fontFamily=Helvetica;fontSize=11;fontColor=#FEFAE0;fillColor=#BC6C25;" vertex="1" parent="1">
          <mxGeometry x="600" y="890" width="100" height="40" as="geometry" />
        </mxCell>
        <mxCell id="DSU_GaLM-mCIvQF9DEVb-79" value="Nombre" style="ellipse;whiteSpace=wrap;html=1;align=center;strokeColor=#DDA15E;fontFamily=Helvetica;fontSize=11;fontColor=#FEFAE0;fillColor=#BC6C25;" vertex="1" parent="1">
          <mxGeometry x="460" y="830" width="100" height="40" as="geometry" />
        </mxCell>
        <mxCell id="DSU_GaLM-mCIvQF9DEVb-91" value="&lt;font style=&quot;font-size: 14px;&quot;&gt;&lt;b&gt;1:N&lt;/b&gt;&lt;/font&gt;" style="text;strokeColor=none;fillColor=none;spacingLeft=4;spacingRight=4;overflow=hidden;rotatable=0;points=[[0,0.5],[1,0.5]];portConstraint=eastwest;fontSize=11;whiteSpace=wrap;html=1;fontFamily=Helvetica;fontColor=#FEFAE0;" vertex="1" parent="1">
          <mxGeometry x="374" y="470" width="40" height="30" as="geometry" />
        </mxCell>
        <mxCell id="DSU_GaLM-mCIvQF9DEVb-92" value="&lt;font style=&quot;font-size: 14px;&quot;&gt;&lt;b&gt;1:N&lt;/b&gt;&lt;/font&gt;" style="text;strokeColor=none;fillColor=none;spacingLeft=4;spacingRight=4;overflow=hidden;rotatable=0;points=[[0,0.5],[1,0.5]];portConstraint=eastwest;fontSize=11;whiteSpace=wrap;html=1;fontFamily=Helvetica;fontColor=#FEFAE0;" vertex="1" parent="1">
          <mxGeometry x="370" y="85" width="40" height="30" as="geometry" />
        </mxCell>
        <mxCell id="DSU_GaLM-mCIvQF9DEVb-93" value="&lt;font style=&quot;font-size: 14px;&quot;&gt;&lt;b&gt;1:N&lt;/b&gt;&lt;/font&gt;" style="text;strokeColor=none;fillColor=none;spacingLeft=4;spacingRight=4;overflow=hidden;rotatable=0;points=[[0,0.5],[1,0.5]];portConstraint=eastwest;fontSize=11;whiteSpace=wrap;html=1;fontFamily=Helvetica;fontColor=#FEFAE0;" vertex="1" parent="1">
          <mxGeometry x="710" y="330" width="40" height="30" as="geometry" />
        </mxCell>
        <mxCell id="DSU_GaLM-mCIvQF9DEVb-94" value="&lt;font style=&quot;font-size: 14px;&quot;&gt;&lt;b&gt;N:1&lt;/b&gt;&lt;/font&gt;" style="text;strokeColor=none;fillColor=none;spacingLeft=4;spacingRight=4;overflow=hidden;rotatable=0;points=[[0,0.5],[1,0.5]];portConstraint=eastwest;fontSize=11;whiteSpace=wrap;html=1;fontFamily=Helvetica;fontColor=#FEFAE0;" vertex="1" parent="1">
          <mxGeometry x="720" y="665" width="40" height="30" as="geometry" />
        </mxCell>
      </root>
    </mxGraphModel>
  </diagram>
</mxfile>
